<?xml version="1.0" standalone="no"?><!DOCTYPE svg PUBLIC "-//W3C//DTD SVG 1.1//EN" "http://www.w3.org/Graphics/SVG/1.1/DTD/svg11.dtd"><svg t="1706786608971" class="icon" viewBox="0 0 1024 1024" version="1.1" xmlns="http://www.w3.org/2000/svg" p-id="4260" xmlns:xlink="http://www.w3.org/1999/xlink" width="16" height="16"><path d="M427.904 492.608a16.896 16.896 0 0 0 0 24.96l438.528 426.368a54.272 54.272 0 0 0 77.056 0 50.752 50.752 0 0 0 0-74.88L504.96 442.688a18.112 18.112 0 0 0-25.664 0l-51.392 49.92z m-12.16-137.728l-70.272-58.624a36.48 36.48 0 0 0-46.208 0L253.12 334.72c-13.248 11.008-13.248 27.52 0 38.464l70.336 58.624a24.32 24.32 0 0 0 30.784 0l61.568-51.264c8.768-7.36 8.768-18.304 0-25.664z m-160.64 448c23.68-78.72 81.152-140.8 158.4-165.696a13.12 13.12 0 0 0 0-24.832c-75.264-24.832-134.656-84.928-158.4-165.696-3.968-12.416-19.84-12.416-23.808 0-23.68 78.72-81.152 140.8-158.4 165.696a13.12 13.12 0 0 0 0 24.832c75.264 24.896 134.656 84.928 158.4 165.76 3.968 10.304 19.84 10.304 23.808 0z m366.08-731.84a203.584 203.584 0 0 1-132.096 132.096 11.008 11.008 0 0 0 0 20.48 203.584 203.584 0 0 1 132.16 132.16 11.008 11.008 0 0 0 20.48 0 203.584 203.584 0 0 1 132.096-132.16 11.008 11.008 0 0 0 0-20.48A203.584 203.584 0 0 1 641.728 71.04c-3.776-9.28-18.624-9.28-20.48 0zM191.488 282.368c15.936-48.512 53.76-83.968 105.536-98.88 7.936-1.92 7.936-13.056 0-14.976-51.776-14.912-89.6-50.368-105.536-98.88-1.984-7.488-13.952-7.488-15.936 0-15.936 48.512-53.76 83.968-105.536 98.88-7.936 1.92-7.936 13.056 0 14.976 51.84 14.912 89.6 50.368 105.6 98.88 1.92 7.488 13.888 7.488 15.872 0z" p-id="4261" fill="#0078FF"></path></svg>