<?xml version="1.0" standalone="no"?><!DOCTYPE svg PUBLIC "-//W3C//DTD SVG 1.1//EN" "http://www.w3.org/Graphics/SVG/1.1/DTD/svg11.dtd"><svg t="1711606651081" class="icon" viewBox="0 0 1024 1024" version="1.1" xmlns="http://www.w3.org/2000/svg" p-id="7562" id="mx_n_1711606651082" xmlns:xlink="http://www.w3.org/1999/xlink" width="16" height="16"><path d="M512 512m-512 0a512 512 0 1 0 1024 0 512 512 0 1 0-1024 0Z" fill="#E9F4FF" p-id="7563"></path><path d="M749.099886 490.832457c14.482286 0 26.2144 11.746743 26.2144 26.229029v201.406171A56.846629 56.846629 0 0 1 718.467657 775.314286H320.175543A56.846629 56.846629 0 0 1 263.314286 718.467657V516.476343a25.643886 25.643886 0 0 1 51.3024 0v207.111314h408.254171V517.061486c0-14.482286 11.746743-26.229029 26.229029-26.229029z m-54.213486-105.808457l-50.570971-70.816914a3.949714 3.949714 0 0 0-2.984229-1.389715H397.312a4.373943 4.373943 0 0 0-3.101257 1.389715l-48.5376 70.802285h349.213257z m-424.521143-1.389714l87.04-98.991543A60.796343 60.796343 0 0 1 403.2512 263.314286H631.954286a61.001143 61.001143 0 0 1 45.129143 19.953371l90.872685 99.9424c4.637257 5.163886 7.255771 11.834514 7.358172 18.768457v3.101257a28.379429 28.379429 0 0 1-28.481829 28.906058H291.796114A28.379429 28.379429 0 0 1 263.314286 405.7088v-3.715657c-0.029257-6.919314 2.486857-13.604571 7.036343-18.783086v0.424229z m163.620572 221.008457a28.481829 28.481829 0 1 1 0-56.846629h170.656914a28.481829 28.481829 0 1 1 0 56.846629H433.985829z" fill="#5F96F5" p-id="7564" data-spm-anchor-id="a313x.search_index.0.i6.45af3a81XqHjxW" class=""></path></svg>