<?xml version="1.0" standalone="no"?><!DOCTYPE svg PUBLIC "-//W3C//DTD SVG 1.1//EN" "http://www.w3.org/Graphics/SVG/1.1/DTD/svg11.dtd"><svg t="1705826287997" class="icon" viewBox="0 0 1024 1024" version="1.1" xmlns="http://www.w3.org/2000/svg" p-id="11751" xmlns:xlink="http://www.w3.org/1999/xlink" width="16" height="16"><path d="M0 0m170.666667 0l682.666666 0q170.666667 0 170.666667 170.666667l0 682.666666q0 170.666667-170.666667 170.666667l-682.666666 0q-170.666667 0-170.666667-170.666667l0-682.666666q0-170.666667 170.666667-170.666667Z" fill="#D7EAFF" p-id="11752"></path><path d="M215.232 519.04a296.768 290.304 0 1 0 593.536 0 296.768 290.304 0 1 0-593.536 0Z" fill="#0078FF" p-id="11753"></path><path d="M619.584 387.541333l4.778667 0.128a95.637333 95.637333 0 0 1 90.858666 95.509334v71.722666l-0.128 4.778667a95.637333 95.637333 0 0 1-95.509333 90.858667H404.416l-4.778667-0.128a95.637333 95.637333 0 0 1-90.858666-95.509334v-71.722666l0.128-4.778667a95.637333 95.637333 0 0 1 95.509333-90.858667h215.168z m-0.896 36.266667h0.896H404.416c-31.68 0-57.749333 24.896-59.264 55.466667l-0.106667 3.904v71.722666c0 31.68 24.896 57.749333 55.466667 59.264l3.904 0.106667h215.168c31.68 0 57.749333-24.896 59.264-55.488l0.106667-3.882667v-71.722666c0-31.68-24.896-57.749333-55.466667-59.264L618.666667 423.808z" fill="#F0F3F9" p-id="11754"></path><path d="M406.421333 477.141333m25.130667 0l0.021333 0q25.130667 0 25.130667 25.130667l0 33.536q0 25.130667-25.130667 25.130667l-0.021333 0q-25.130667 0-25.130667-25.130667l0-33.536q0-25.130667 25.130667-25.130667Z" fill="#F0F3F9" p-id="11755"></path><path d="M572.928 477.141333m25.130667 0l0.021333 0q25.130667 0 25.130667 25.130667l0 33.536q0 25.130667-25.130667 25.130667l-0.021333 0q-25.130667 0-25.130667-25.130667l0-33.536q0-25.130667 25.130667-25.130667Z" fill="#F0F3F9" p-id="11756"></path><path d="M517.205333 573.802667c13.888 0 25.152-11.264 25.152-25.152 0-13.866667-50.282667-13.866667-50.282666 0 0 13.888 11.242667 25.152 25.130666 25.152z" fill="#F0F3F9" p-id="11757"></path></svg>