<?xml version="1.0" standalone="no"?><!DOCTYPE svg PUBLIC "-//W3C//DTD SVG 1.1//EN" "http://www.w3.org/Graphics/SVG/1.1/DTD/svg11.dtd"><svg t="1724314054904" class="icon" viewBox="0 0 1024 1024" version="1.1" xmlns="http://www.w3.org/2000/svg" p-id="26164" xmlns:xlink="http://www.w3.org/1999/xlink" width="128" height="128"><path d="M587.195733 817.493333c13.824 0 25.053867 11.025067 25.053867 24.576 0 13.585067-19.8656 78.882133-100.2496 78.882134-75.195733 0-100.2496-65.297067-100.2496-78.848 0-13.585067 11.229867-24.576 25.053867-24.576h150.391466zM512 178.3808c152.234667 0 275.694933 121.070933 275.694933 270.404267A268.3904 268.3904 0 0 1 675.84 666.282667l2.048 59.118933c0.546133 15.5648-5.358933 30.651733-16.384 41.847467a59.050667 59.050667 0 0 1-42.052267 17.476266h-209.7152c-31.505067 0-57.344-24.4736-58.436266-55.3984l-2.184534-62.3616a268.424533 268.424533 0 0 1-112.810666-218.180266c0-149.333333 123.426133-270.404267 275.694933-270.404267z m0 49.152c-124.586667 0-225.553067 99.054933-225.553067 221.252267 0 75.127467 38.434133 143.837867 101.137067 184.558933 6.7584 4.4032 10.922667 11.707733 11.195733 19.6608l2.628267 74.6496c0.136533 4.437333 3.857067 7.918933 8.362667 7.918933h77.141333v-166.434133l-60.0064-62.532267a24.234667 24.234667 0 0 1-5.7344-23.927466 24.8832 24.8832 0 0 1 18.261333-16.861867 25.3952 25.3952 0 0 1 23.995734 7.0656l49.629866 51.746133 56.9344-52.770133a25.3952 25.3952 0 0 1 35.4304 1.024 24.234667 24.234667 0 0 1-1.024 34.747733l-67.345066 62.3616v165.546667h82.397866a8.260267 8.260267 0 0 0 8.328534-8.192v-0.238933l-2.525867-72.465067a24.439467 24.439467 0 0 1 11.195733-21.333333c62.702933-40.721067 101.102933-109.397333 101.102934-184.5248 0-122.197333-100.9664-221.252267-225.553067-221.252267z m391.304533 280.337067l34.747734 63.726933 63.556266 34.816-63.624533 34.884267-34.816 63.761066-34.7136-63.6928-63.624533-34.816 63.658666-34.884266 34.816-63.829334z m62.225067-252.040534l18.568533 33.8944 33.8944 18.568534-34.065066 18.568533-18.568534 34.065067-18.466133-33.9968-33.9968-18.466134 33.9968-18.670933 18.6368-33.962667zM91.511467 178.756267l23.108266 42.3936 42.3936 23.108266-42.461866 23.210667-23.2448 42.496-23.108267-42.3936-42.3936-23.074133L68.266667 221.252267l23.2448-42.496zM291.2256 0l30.9248 56.558933 56.558933 30.9248-56.763733 31.0272-31.0272 56.7296-30.8224-56.661333-56.661333-30.788267 56.695466-31.1296L291.2256 0z" fill="#409EFF" p-id="26165"></path></svg>